<svg viewBox="0 0 401 131" fill="none" xmlns="http://www.w3.org/2000/svg">
<g clip-path="url(#clip0_1024374_998353)">
<path d="M171.434 77.579H183.323C183.665 77.579 183.953 77.8323 183.994 78.1745C185.171 87.0929 190.53 95.5597 200.742 95.5597H214.37C223.357 95.5597 229.448 89.3243 229.448 80.9123C229.448 73.2259 224.377 67.5722 216.546 66.703L196.245 63.9515C181.016 61.9255 173.186 51.9187 173.186 38.2912C173.186 22.7746 183.48 11.0293 206.102 11.0293C228.723 11.0293 239.599 21.3577 240.721 40.8921C240.742 41.2823 240.427 41.6177 240.03 41.6177H228.196C227.84 41.6177 227.546 41.337 227.518 40.9811C226.875 32.3296 221.803 23.3495 211.755 23.3495H199.723C191.311 23.3495 185.951 29.0031 185.951 37.1208C185.951 45.6765 192.187 50.892 199.579 51.9119L219.585 54.5197C235.246 56.6962 242.35 66.2649 242.35 79.8925C242.35 95.4091 232.638 107.873 207.265 107.873C183.624 107.887 171.448 97.8321 170.743 78.2908C170.729 77.9007 171.044 77.579 171.427 77.579H171.434Z" fill="#000C2C"/>
<path d="M290.897 118.762H337.043C339.446 118.762 341.39 116.811 341.39 114.416V101.562C341.39 99.9736 339.487 99.2001 338.357 100.309C333.635 104.97 326.715 107.598 318.193 107.598C297.892 107.598 284.121 92.8073 284.121 71.3496C284.121 49.8919 297.892 34.957 318.193 34.957C326.735 34.957 333.854 37.599 338.652 42.3492C339.774 43.4648 341.684 42.6845 341.684 41.0966V37.6675C341.684 37.291 341.992 36.983 342.368 36.983H353.176C353.552 36.983 353.86 37.291 353.86 37.6675V116.873C353.86 126.01 349.363 130.5 340.089 130.5H290.897C290.521 130.5 290.213 130.192 290.213 129.816V119.44C290.213 119.063 290.521 118.755 290.897 118.755V118.762ZM341.246 77.7287V64.8267C341.246 54.9705 334.285 46.846 325.298 46.846H315.435C305.141 46.846 296.729 57.8658 296.729 71.3496C296.729 84.8334 305.141 95.7094 315.435 95.7094H325.298C334.285 95.7094 341.246 87.8792 341.246 77.7287Z" fill="#000C2C"/>
<path d="M263.149 9.55762C258.529 9.55762 254.785 13.3016 254.785 17.9217C254.785 22.5418 258.529 26.2857 263.149 26.2857H263.402C268.023 26.2857 271.767 22.5418 271.767 17.9217C271.767 13.3016 268.023 9.55762 263.402 9.55762H263.149Z" fill="#000C2C"/>
<path d="M257.653 36.9834H268.899C269.275 36.9834 269.583 37.2914 269.583 37.6679V105.169C269.583 105.545 269.275 105.853 268.899 105.853H257.653C257.277 105.853 256.969 105.545 256.969 105.169V37.6679C256.969 37.2914 257.277 36.9834 257.653 36.9834Z" fill="#000C2C"/>
</g>
<path d="M137.341 40.2075C134.747 45.8953 128.881 49.3792 122.625 49.3792C110.463 49.3792 108.423 51.0424 105.329 62.6508L104.686 65.0396C103.016 71.2682 97.3758 75.6008 90.9282 75.6008H89.8879C77.2117 75.6008 75.172 77.3051 71.9551 89.3584L71.4486 91.2612C69.7854 97.4623 64.1796 101.781 57.7663 101.822C50.0593 101.863 43.9197 95.32 43.9197 87.613V87.4008C43.9197 79.0778 50.6685 72.3291 58.9915 72.3291C71.6539 72.3291 73.6936 70.5905 76.9242 58.5715L77.4307 56.6687C79.1008 50.4401 84.7408 46.1075 91.1883 46.1075H92.7352C104.939 46.1075 106.951 44.3005 110.031 32.829C110.216 32.1377 110.401 31.4601 110.572 30.8167C112.235 24.6224 117.697 20.0297 124.111 19.8859C134.473 19.6601 141.852 30.3034 137.334 40.2075H137.341ZM139.08 74.2729C138.874 73.7664 138.649 73.2736 138.389 72.7945C138.224 72.4796 138.039 72.1648 137.834 71.8705C137.738 71.7131 137.642 71.5625 137.526 71.4187C137.423 71.2682 137.314 71.1244 137.204 70.9875C136.89 70.5837 136.561 70.1936 136.191 69.8171C136.055 69.6665 135.904 69.5296 135.76 69.3927C135.733 69.3654 135.705 69.3448 135.678 69.3106C135.527 69.1806 135.384 69.0437 135.226 68.9136C135.076 68.7904 134.939 68.6741 134.795 68.5645C134.74 68.5166 134.686 68.4824 134.631 68.4413C134.48 68.3318 134.337 68.2223 134.186 68.1197C134.035 68.017 133.878 67.9075 133.727 67.8116C133.645 67.7637 133.563 67.7158 133.488 67.6611C133.18 67.4831 132.885 67.312 132.571 67.1614C132.447 67.0998 132.331 67.0519 132.201 66.9971C132.016 66.915 131.831 66.8192 131.64 66.737C131.12 66.5249 130.586 66.3469 130.038 66.2032H130.018C129.799 66.1484 129.573 66.0937 129.354 66.0457C128.478 65.8678 127.554 65.772 126.602 65.772C126.452 65.772 126.315 65.772 126.178 65.7788C125.842 65.7856 125.514 65.8062 125.178 65.8404C124.994 65.8609 124.816 65.8883 124.631 65.9157C124.453 65.9431 124.268 65.9705 124.083 66.0115C119.032 67.0108 114.918 70.9601 113.556 76.073L113.05 77.969L112.756 79.0436C110.223 88.1058 108.204 90.1729 99.2581 90.4535C98.471 90.4809 97.6428 90.4877 96.7461 90.4877H95.2882C89.0734 90.9121 83.7483 95.2379 82.1193 101.33C81.8044 102.5 81.6607 103.677 81.6607 104.82C81.6607 112 87.4786 118.208 95.0692 118.208C101.14 118.208 106.452 114.136 108.019 108.27L108.608 106.08L108.875 105.08C111.654 95.0462 113.81 93.5678 124.912 93.5678C125.487 93.5678 126.048 93.5404 126.609 93.472C126.766 93.4651 126.924 93.4446 127.088 93.4172C129.251 93.1092 131.318 92.37 133.132 91.2543C134.337 90.5151 135.425 89.6116 136.376 88.5575C136.561 88.3522 136.739 88.14 136.903 87.9278C137.006 87.8046 137.095 87.6814 137.198 87.5582C137.307 87.394 137.43 87.216 137.547 87.0517C138.436 85.7307 139.114 84.2523 139.552 82.6438C140.339 79.728 140.1 76.8328 139.094 74.2729H139.08ZM135.671 69.3038C135.849 69.468 136.02 69.6391 136.191 69.8103L135.671 69.3038ZM99.2512 90.4398H96.2875C95.9522 90.4398 95.6236 90.4466 95.3019 90.474M43.5364 47.4216C43.7417 47.9282 43.9676 48.421 44.2277 48.9001C44.392 49.2149 44.5768 49.5298 44.7821 49.8241C44.8779 49.9815 44.9738 50.1321 45.0901 50.2758C45.1928 50.4264 45.3023 50.5702 45.4118 50.707C45.7267 51.1109 46.0552 51.501 46.4248 51.8775C46.5617 52.028 46.7123 52.1649 46.856 52.3018C46.8834 52.3292 46.9108 52.3497 46.9382 52.384C47.0887 52.514 47.2325 52.6509 47.3899 52.781C47.5405 52.9042 47.6774 53.0205 47.8211 53.13C47.8759 53.1779 47.9306 53.2122 47.9854 53.2532C48.136 53.3627 48.2797 53.4723 48.4303 53.5749C48.5809 53.6776 48.7383 53.7871 48.8889 53.8829C48.971 53.9308 49.0531 53.9788 49.1284 54.0335C49.4364 54.2115 49.7308 54.3826 50.0456 54.5332C50.1688 54.5948 50.2852 54.6427 50.4152 54.6974C50.6 54.7796 50.7848 54.8754 50.9765 54.9575C51.4967 55.1697 52.0305 55.3477 52.5781 55.4914H52.5986C52.8177 55.5462 53.0435 55.6009 53.2626 55.6488C54.1387 55.8268 55.0627 55.9226 56.0141 55.9226C56.1647 55.9226 56.3015 55.9226 56.4384 55.9158C56.7738 55.9089 57.1024 55.8884 57.4377 55.8542C57.6225 55.8336 57.8005 55.8063 57.9853 55.7789C58.1633 55.7515 58.3481 55.7241 58.5329 55.6831C63.5842 54.6837 67.6978 50.7344 69.0598 45.6215L69.5663 43.7256L69.8606 42.651C72.3931 33.5888 74.4123 31.5217 83.3581 31.2411C84.1453 31.2137 84.9735 31.2069 85.8701 31.2069H87.328C93.5429 30.7825 98.868 26.4567 100.497 20.365C100.812 19.1946 100.956 18.0174 100.956 16.8743C100.956 9.69436 95.1377 3.48633 87.547 3.48633C81.4759 3.48633 76.1645 7.55885 74.5971 13.4247L74.0085 15.6149L73.7415 16.6142C70.9626 26.6484 68.8066 28.1268 57.7047 28.1268C57.1297 28.1268 56.5685 28.1542 56.0072 28.2226C55.8498 28.2295 55.6924 28.25 55.5281 28.2774C53.3652 28.5854 51.2982 29.3246 49.4843 30.4403C48.2797 31.1795 47.1914 32.083 46.24 33.137C46.0552 33.3424 45.8773 33.5545 45.713 33.7667C45.6103 33.8899 45.5213 34.0131 45.4187 34.1363C45.3092 34.3006 45.186 34.4786 45.0696 34.6428C44.1798 35.9638 43.5022 37.4423 43.0641 39.0507C42.277 41.9665 42.5166 44.8618 43.5227 47.4216H43.5364ZM46.945 52.3908C46.7671 52.2265 46.5959 52.0554 46.4248 51.8843L46.945 52.3908ZM83.365 31.2548H86.3287C86.6641 31.2548 86.9926 31.2479 87.3143 31.2205" fill="url(#paint0_linear_1024374_998353)"/>
<defs>
<linearGradient id="paint0_linear_1024374_998353" x1="42.6055" y1="60.8507" x2="140.011" y2="60.8507" gradientUnits="userSpaceOnUse">
<stop stop-color="#0087FF"/>
<stop offset="1" stop-color="#007AFF"/>
</linearGradient>
<clipPath id="clip0_1024374_998353">
<rect width="183.12" height="120.95" fill="white" transform="translate(170.742 9.55762)"/>
</clipPath>
</defs>
</svg>
