<?xml version="1.0" encoding="UTF-8"?><svg id="Layer_2" xmlns="http://www.w3.org/2000/svg" xmlns:xlink="http://www.w3.org/1999/xlink" viewBox="0 0 602.94 276.54"><defs><style>.cls-1{fill:url(#linear-gradient);}.cls-2{fill:#231f20;}.cls-3{fill:url(#linear-gradient-8);}.cls-4{fill:url(#linear-gradient-9);}.cls-5{fill:url(#linear-gradient-3);}.cls-6{fill:url(#linear-gradient-4);}.cls-7{fill:url(#linear-gradient-2);}.cls-8{fill:url(#linear-gradient-6);}.cls-9{fill:url(#linear-gradient-7);}.cls-10{fill:url(#linear-gradient-5);}.cls-11{fill:url(#linear-gradient-14);}.cls-12{fill:url(#linear-gradient-13);}.cls-13{fill:url(#linear-gradient-12);}.cls-14{fill:url(#linear-gradient-10);}.cls-15{fill:url(#linear-gradient-11);}</style><linearGradient id="linear-gradient" x1="2.28" y1="-22.3" x2="208.75" y2="294.28" gradientUnits="userSpaceOnUse"><stop offset="0" stop-color="#00fffb"/><stop offset=".51" stop-color="#3675f8"/><stop offset="1" stop-color="#7c00dd"/></linearGradient><linearGradient id="linear-gradient-2" x1="87.33" y1="-77.77" x2="293.81" y2="238.82" xlink:href="#linear-gradient"/><linearGradient id="linear-gradient-3" x1="2.62" y1="-22.53" x2="209.09" y2="294.06" xlink:href="#linear-gradient"/><linearGradient id="linear-gradient-4" x1="-82.43" y1="32.94" x2="124.04" y2="349.53" xlink:href="#linear-gradient"/><linearGradient id="linear-gradient-5" x1="-5.17" y1="-17.44" x2="201.3" y2="299.14" xlink:href="#linear-gradient"/><linearGradient id="linear-gradient-6" x1="9.41" y1="-26.95" x2="215.88" y2="289.64" xlink:href="#linear-gradient"/><linearGradient id="linear-gradient-7" x1="-61.37" y1="19.21" x2="145.1" y2="335.79" xlink:href="#linear-gradient"/><linearGradient id="linear-gradient-8" x1="52.47" y1="-55.04" x2="258.94" y2="261.55" xlink:href="#linear-gradient"/><linearGradient id="linear-gradient-9" x1="124.01" y1="-101.69" x2="330.48" y2="214.89" xlink:href="#linear-gradient"/><linearGradient id="linear-gradient-10" x1="66.48" y1="-64.17" x2="272.95" y2="252.42" xlink:href="#linear-gradient"/><linearGradient id="linear-gradient-11" x1="10.07" y1="-27.38" x2="216.54" y2="289.2" xlink:href="#linear-gradient"/><linearGradient id="linear-gradient-12" x1="-4.51" y1="-17.88" x2="201.96" y2="298.71" xlink:href="#linear-gradient"/><linearGradient id="linear-gradient-13" x1="-47.57" y1="10.21" x2="158.9" y2="326.79" xlink:href="#linear-gradient"/><linearGradient id="linear-gradient-14" x1="-119.11" y1="56.86" x2="87.36" y2="373.45" xlink:href="#linear-gradient"/></defs><g id="Layer_1-2"><path class="cls-1" d="m91.54,29.98c6.63-6.63,6.63-17.38,0-24.01-6.63-6.63-17.38-6.63-24.01,0-3.32,3.32-4.97,7.66-4.97,12.01h0c0,16.98-27.76,44.74-44.74,44.74-4.35,0-8.69,1.66-12.01,4.97-6.63,6.63-6.63,17.38,0,24.01,3.32,3.32,7.66,4.97,12.01,4.97,16.98,0,42.1,25.12,42.1,42.1,0,4.35,1.66,8.69,4.97,12.01,6.63,6.63,17.38,6.63,24.01,0,6.63-6.63,6.63-17.38,0-24.01-3.32-3.32-7.66-4.97-12.01-4.97-16.98,0-42.1-25.12-42.1-42.1s27.76-44.74,44.74-44.74h0c4.35,0,8.69-1.66,12.01-4.97Z"/><path class="cls-7" d="m209.52,63.54c-3.32-3.32-7.66-4.97-12.01-4.97-16.98,0-41.59-24.61-41.59-41.59,0-4.35-1.66-8.69-4.97-12.01-6.63-6.63-17.38-6.63-24.01,0-6.63,6.63-6.63,17.38,0,24.01,3.32,3.32,7.66,4.97,12.01,4.97h0c16.98,0,41.59,24.61,41.59,41.59h0c0,4.35,1.66,8.69,4.97,12.01,6.63,6.63,17.38,6.63,24.01,0,6.63-6.63,6.63-17.38,0-24.01Z"/><path class="cls-5" d="m208.69,208.86c6.63-6.63,6.63-17.38,0-24.01-3.33-3.33-7.7-4.98-12.06-4.97-16.92-.05-41.9-25-42.04-41.95.04-4.39-1.61-8.8-4.96-12.15-6.63-6.63-17.38-6.63-24.01,0-6.63,6.63-6.63,17.38,0,24.01,3.33,3.33,7.7,4.98,12.07,4.97,16.94.07,41.96,25.08,42.02,42.03,0,.02,0,.05,0,.07h0c0,16.98-27.76,44.74-44.74,44.74-4.35,0-8.69,1.66-12.01,4.97-6.63,6.63-6.63,17.38,0,24.01,6.63,6.63,17.38,6.63,24.01,0,3.32-3.32,4.97-7.66,4.97-12.01,0-16.98,27.76-44.74,44.74-44.74,4.35,0,8.69-1.66,12.01-4.97Z"/><path class="cls-6" d="m75.55,242.58c-16.98,0-41.59-24.61-41.59-41.59,0-4.35-1.66-8.69-4.97-12.01-6.63-6.63-17.38-6.63-24.01,0-6.63,6.63-6.63,17.38,0,24.01,3.32,3.32,7.66,4.97,12.01,4.97,16.98,0,41.59,24.61,41.59,41.59h0c0,4.35,1.66,8.69,4.97,12.01,6.63,6.63,17.38,6.63,24.01,0,6.63-6.63,6.63-17.38,0-24.01-3.32-3.32-7.66-4.97-12.01-4.97Z"/><path class="cls-10" d="m18.14,28.24c-2.66,0-5.15-1.03-7.03-2.91-1.88-1.88-2.91-4.37-2.91-7.03s1.03-5.15,2.91-7.02c1.88-1.88,4.37-2.92,7.03-2.92s5.15,1.03,7.03,2.91c1.88,1.88,2.91,4.37,2.91,7.03s-1.03,5.15-2.91,7.03c-1.88,1.88-4.37,2.91-7.03,2.91Z"/><path class="cls-8" d="m77.89,87.98c-2.66,0-5.15-1.03-7.03-2.91-1.88-1.88-2.91-4.37-2.91-7.03s1.03-5.15,2.91-7.03c1.88-1.88,4.37-2.91,7.03-2.91s5.15,1.03,7.03,2.91c1.88,1.88,2.91,4.37,2.91,7.03s-1.03,5.15-2.91,7.02c-1.88,1.88-4.37,2.92-7.03,2.92Z"/><path class="cls-9" d="m16.82,149.04c-2.66,0-5.15-1.03-7.03-2.91-3.88-3.87-3.88-10.18,0-14.06,1.88-1.87,4.37-2.91,7.03-2.91s5.15,1.03,7.03,2.91c3.87,3.88,3.87,10.19,0,14.06-1.88,1.88-4.37,2.91-7.03,2.91Z"/><path class="cls-3" d="m138.61,86.99c-2.65,0-5.15-1.03-7.03-2.91-3.87-3.87-3.87-10.18,0-14.06,1.88-1.88,4.37-2.91,7.03-2.91s5.15,1.03,7.03,2.91c3.87,3.87,3.87,10.18,0,14.06-1.88,1.88-4.37,2.91-7.03,2.91Z"/><path class="cls-4" d="m200.33,25.27c-2.65,0-5.15-1.03-7.03-2.91-3.87-3.87-3.87-10.18,0-14.06,1.88-1.88,4.37-2.91,7.03-2.91s5.15,1.03,7.03,2.91c3.87,3.87,3.87,10.18,0,14.06-1.88,1.88-4.37,2.91-7.03,2.91Z"/><path class="cls-14" d="m196.01,144.39c-2.66,0-5.15-1.03-7.03-2.91-3.87-3.87-3.87-10.18,0-14.06,1.88-1.87,4.37-2.91,7.03-2.91s5.15,1.03,7.03,2.91c3.87,3.87,3.87,10.18,0,14.06-1.88,1.87-4.37,2.91-7.03,2.91Z"/><path class="cls-15" d="m196.35,268.19c-2.65,0-5.15-1.03-7.03-2.91-3.87-3.87-3.87-10.18,0-14.06,1.88-1.88,4.37-2.91,7.03-2.91s5.15,1.03,7.03,2.91c3.87,3.87,3.87,10.18,0,14.06-1.88,1.88-4.37,2.91-7.03,2.91Z"/><path class="cls-13" d="m136.61,208.44c-2.65,0-5.15-1.03-7.03-2.91-3.87-3.87-3.87-10.18,0-14.06,1.88-1.88,4.37-2.91,7.03-2.91s5.15,1.03,7.03,2.91c3.87,3.87,3.87,10.18,0,14.06-1.88,1.88-4.37,2.91-7.03,2.91Z"/><path class="cls-12" d="m75.88,209.43c-2.66,0-5.15-1.03-7.03-2.91-1.88-1.88-2.91-4.37-2.91-7.03s1.03-5.15,2.91-7.02c1.88-1.88,4.37-2.92,7.03-2.92s5.15,1.03,7.03,2.91c1.88,1.88,2.91,4.37,2.91,7.03s-1.03,5.15-2.91,7.03c-1.88,1.88-4.37,2.91-7.03,2.91Z"/><path class="cls-11" d="m14.16,271.15c-2.66,0-5.15-1.03-7.03-2.91-3.87-3.87-3.87-10.18,0-14.06,1.88-1.87,4.37-2.91,7.03-2.91s5.15,1.03,7.03,2.91c3.87,3.87,3.87,10.18,0,14.06-1.88,1.87-4.37,2.91-7.03,2.91Z"/><path class="cls-2" d="m602.92,195.38v-104.98l-18.64.33v9.72c-6.72-7.78-17.89-11.68-33.53-11.68-17.43,0-29.28,5.36-35.57,16.07-4.64,7.72-6.96,20.64-6.96,38.78s2.11,30.96,6.32,38.46c6.28,10.92,18.71,16.39,37.28,16.39,15.21,0,26.49-4.15,33.85-12.43v10.71h.01l-.1,1.94c-.11,2.26-.3,4.34-.58,6.35-.53,3.88-1.74,6.99-3.62,9.24-1.93,2.32-4.32,4.14-7.09,5.41-2.91,1.32-6.13,2.24-9.58,2.72-3.61.51-7.19.77-10.65.77-8.37,0-15-1.37-19.69-4.06-4.33-2.49-6.43-6.33-6.43-11.74v-2.35h-16.88v2.35c0,5.91,1.2,11.01,3.57,15.17,2.36,4.13,5.58,7.53,9.57,10.1,3.9,2.53,8.55,4.37,13.84,5.48,5.12,1.08,10.73,1.62,16.68,1.62,5.16,0,10.42-.46,15.62-1.38,5.3-.93,10.18-2.56,14.49-4.83,4.4-2.3,8.17-5.46,11.2-9.37,3.06-3.98,5.09-9.05,6-15.03.59-3.22.89-6.94.9-11.05v-2.71s-.01,0-.01,0Zm-25.12-21.66c-4.47,5.14-12.77,7.71-24.91,7.71-10.5,0-17.57-2.99-21.21-9-3.07-4.99-4.61-14.53-4.61-28.59s1.54-23.5,4.61-28.5c3.64-6,10.71-9,21.21-9,12.14,0,20.44,2.58,24.91,7.71,4.46,5.14,6.69,15.07,6.69,29.79s-2.23,24.74-6.69,29.88Z"/><path class="cls-2" d="m423.79,152.29c0,15.93-4.61,27.62-13.82,35.08-9.21,7.46-23.6,11.2-43.17,11.2s-33.28-2.92-42.21-8.79c-9.79-6.28-14.68-17.03-14.68-32.24h19.28c0,8.93,2.68,15.03,8.03,18.32,5.36,3.29,15.35,4.93,29.99,4.93s24.49-2.18,29.78-6.53c4.71-3.79,7.07-10.75,7.07-20.89s-2.57-15.78-7.71-18.42c-3.07-1.71-10.18-2.78-21.32-3.21-10.07-.43-20.21-.79-30.42-1.08-11-1.35-19.21-4.46-24.64-9.32-6.71-6.14-10.07-15.93-10.07-29.35,0-15.93,4.54-27.18,13.61-33.75,8.64-6.14,22.88-9.21,42.74-9.21s33.14,2.92,41.78,8.78c9.5,6.29,14.25,17.03,14.25,32.25h-18.85c0-10-3.32-16.6-9.96-19.82-4.93-2.28-14.14-3.43-27.64-3.43-14.93,0-24.85,1.82-29.78,5.46-4.43,3.21-6.64,9.72-6.64,19.5,0,9.07,2.78,15,8.35,17.78,3.07,1.43,10.03,2.47,20.89,3.11,10.07.43,20.14.78,30.21,1.07,11.14,1.14,19.42,4.22,24.85,9.21,6.71,6.14,10.07,15.93,10.07,29.35Z"/><path class="cls-2" d="m479.15,60.76c0,7.29-3.68,10.93-11.03,10.93s-10.93-3.64-10.93-10.93,3.64-10.92,10.93-10.92,11.03,3.64,11.03,10.92Z"/><path class="cls-2" d="m477.49,197.76h-18.64v-106.16h18.64v106.16Z"/></g></svg>